<?xml version="1.0" encoding="UTF-8"?>
<svg id="Layer_1" xmlns="http://www.w3.org/2000/svg" width="20" height="23.2" version="1.1" viewBox="0 0 20 23.2">
  <!-- Generator: Adobe Illustrator 29.8.3, SVG Export Plug-In . SVG Version: 2.1.1 Build 3)  -->
  <path d="M3.2,0C1.4,0,0,1.4,0,3.1c0,0,0,0,0,0v16.8c0,1.7,1.4,3.2,3.2,3.2h13.7c1.7,0,3.2-1.4,3.2-3.2v-10.5c0-.3-.1-.5-.3-.7L11.3.3c0-.1-.2-.2-.4-.2-.1,0-.3,0-.4,0H3.2ZM9.5,2.1H3.2c-.6,0-1,.4-1.1.9,0,0,0,0,0,.1v16.8c0,.6.4,1,.9,1,0,0,0,0,.1,0h13.7c.6,0,1-.4,1-.9,0,0,0,0,0-.1v-9.5h-7.4c-.6,0-1.1-.5-1.1-1,0,0,0,0,0,0V2.1ZM16.4,8.4l-4.8-4.8v4.8h4.8Z" fill="#5729d9" fill-rule="evenodd"/>
</svg>