<?xml version="1.0" encoding="UTF-8"?>
<svg id="Layer_1" xmlns="http://www.w3.org/2000/svg" width="417.15" height="417.16" version="1.1" viewBox="0 0 417.15 417.16">
  <!-- Generator: Adobe Illustrator 29.8.3, SVG Export Plug-In . SVG Version: 2.1.1 Build 3)  -->
  <path d="M183.47.13c2.11,0,4.21-.02,6.32-.03,5.7-.02,11.4-.02,17.1-.01,4.77,0,9.54,0,14.31,0,11.26-.02,22.51-.01,33.77,0,11.59.02,23.17,0,34.76-.03,9.97-.03,19.94-.03,29.91-.03,5.94,0,11.89,0,17.83-.02,5.59-.02,11.19-.01,16.78.01,2.04,0,4.09,0,6.13-.01,17.31-.1,30.53,2.2,43.38,14.75,8.96,9.44,13.17,19.97,13.12,32.87,0,.88,0,1.76.01,2.67.01,2.94.01,5.88,0,8.81,0,2.11.01,4.22.02,6.33.02,5.73.02,11.45.02,17.18,0,3.58,0,7.16.01,10.74.02,12.5.03,25,.03,37.5,0,11.64.02,23.28.05,34.92.03,10,.04,20.01.04,30.01,0,5.97,0,11.94.03,17.91.02,5.62.02,11.23,0,16.85,0,2.06,0,4.11.01,6.17q.11,19.92-4.5,28.93c-.53,1.06-1.06,2.11-1.61,3.2-7.7,12.11-18,19.96-32.1,23.38-4.12.75-8.21.68-12.38.64-.98,0-1.95,0-2.96,0-3.2,0-6.41-.02-9.61-.03-2.23,0-4.46,0-6.69,0-5.85,0-11.7-.03-17.56-.05-5.98-.02-11.96-.03-17.94-.04-11.72-.02-23.44-.06-35.16-.1,0,1.08.02,2.16.03,3.27.08,10.19.14,20.39.18,30.58.02,5.24.05,10.48.09,15.72.04,5.06.07,10.13.08,15.19,0,1.93.02,3.85.04,5.78.18,16.77-2.42,28.78-13.92,41.59-8.37,8.09-19.2,12.02-30.65,12.02q-1.24,0-2.51.01c-2.78.01-5.56.01-8.34.02-1.99,0-3.99.01-5.98.02-6.55.02-13.1.03-19.65.04-2.26,0-4.51,0-6.77.01-10.6.02-21.2.03-31.8.04-12.23,0-24.45.04-36.68.08-9.46.03-18.91.04-28.37.05-5.64,0-11.29.01-16.93.04-5.31.02-10.63.03-15.94.02-1.94,0-3.89,0-5.83.02-16.57.11-28.51-2.62-41.17-13.99-8.09-8.36-12.02-19.19-12.03-30.64,0-.83,0-1.65-.01-2.51-.01-2.78-.02-5.55-.03-8.33,0-1.99-.02-3.98-.02-5.97-.03-6.54-.04-13.08-.06-19.62,0-2.25-.01-4.51-.02-6.76-.02-9.38-.04-18.75-.05-28.13-.02-13.42-.05-26.85-.11-40.27-.04-9.45-.06-18.89-.06-28.34,0-5.64-.02-11.27-.05-16.91-.03-5.31-.04-10.62-.02-15.93,0-1.94,0-3.88-.03-5.82-.14-16.65,2.48-28.85,14.48-41.21,9.04-8.49,19.65-12.41,31.91-12.3q1.27,0,2.57,0c2.79,0,5.57.02,8.36.03,1.94,0,3.88,0,5.82,0,5.09,0,10.18.03,15.27.05,5.2.02,10.4.03,15.61.04,10.19.02,20.39.06,30.58.1,0-1.24-.02-2.48-.03-3.75-.08-11.71-.14-23.42-.18-35.13-.02-6.02-.05-12.04-.09-18.06-.04-5.82-.07-11.63-.08-17.45,0-2.21-.02-4.42-.04-6.64-.16-17.5,1.14-32.25,13.67-45.72,4.11-3.83,8.7-6.81,13.75-9.25.65-.33,1.3-.66,1.97-1C163.22-.56,173.16.09,183.47.13ZM160.61,38.72c-3.08,4.53-3.15,7.6-3.15,12.95,0,.84,0,1.68-.01,2.54-.01,2.82-.02,5.65-.03,8.47,0,2.02-.02,4.04-.02,6.06-.03,6.64-.04,13.29-.06,19.93,0,2.28-.01,4.57-.02,6.85-.02,9.5-.04,19.01-.05,28.51-.02,13.63-.05,27.26-.11,40.89-.04,9.58-.06,19.16-.06,28.73,0,5.72-.02,11.45-.05,17.17-.03,5.39-.04,10.77-.02,16.16,0,1.98,0,3.95-.03,5.93-.02,2.7-.01,5.4,0,8.1-.01.78-.03,1.56-.04,2.36.08,5.68,1.71,9.18,5.65,13.29,4.14,3.46,8.2,3.43,13.38,3.39.84,0,1.68.01,2.55.02,2.82.01,5.63,0,8.45,0,2.02,0,4.04.01,6.06.02,5.49.02,10.98.02,16.46.01,4.58,0,9.16,0,13.74,0,10.8.01,21.61.01,32.41,0,11.15-.01,22.3,0,33.45.03,9.57.02,19.14.03,28.71.02,5.72,0,11.43,0,17.15.02,5.38.02,10.75.01,16.13,0,1.97,0,3.95,0,5.92,0,2.69.01,5.39,0,8.08-.02.78,0,1.56.02,2.37.03,5.2-.07,8.14-1.24,12.14-4.53,4.85-6.16,5.15-11.37,5.14-18.98,0-.8,0-1.6,0-2.42,0-2.67.01-5.34.01-8.02,0-1.92,0-3.83.02-5.75.01-5.21.02-10.41.02-15.62,0-3.25,0-6.51.01-9.76.01-10.19.02-20.37.03-30.56,0-11.75.02-23.5.05-35.25.02-9.09.03-18.18.03-27.26,0-5.43,0-10.85.02-16.28.02-5.11.02-10.21,0-15.32,0-1.87,0-3.74.01-5.61q.67-14.14-4.65-26.73c-5.62-5.25-12.62-5.74-19.95-5.7-.8,0-1.6,0-2.42-.01-2.67-.01-5.33,0-8,0-1.92,0-3.83,0-5.75-.02-5.2-.01-10.4-.01-15.6-.01-4.34,0-8.69,0-13.03,0-10.25-.01-20.5-.01-30.75,0-10.56,0-21.13,0-31.69-.03-9.08-.02-18.16-.02-27.24-.02-5.42,0-10.84,0-16.26-.01-5.1-.01-10.19-.01-15.29,0-1.87,0-3.73,0-5.6,0q-15.41-.76-28.14,6.45ZM34.8,179.54c-2.67,4.78-2.33,10.41-2.32,15.75,0,.75,0,1.49,0,2.27,0,2.49,0,4.99,0,7.48,0,1.79,0,3.58-.01,5.38,0,4.86-.01,9.72-.01,14.58,0,3.04,0,6.08,0,9.12,0,10.6-.01,21.21-.01,31.81,0,9.88,0,19.76-.03,29.64-.01,8.49-.02,16.97-.02,25.46,0,5.07,0,10.13-.01,15.2,0,4.76,0,9.53,0,14.29,0,1.75,0,3.49,0,5.24,0,2.39,0,4.78,0,7.16,0,.69-.01,1.38-.02,2.08.04,5.19.51,10.45,3.81,14.63q.87.7,1.76,1.41c.57.48,1.15.96,1.74,1.46,4.42,2.64,9.5,2.31,14.5,2.3q1.13,0,2.28,0c2.51,0,5.03,0,7.54,0,1.8,0,3.61,0,5.41.01,4.9,0,9.79.01,14.69.01,4.09,0,8.18,0,12.26,0,9.64,0,19.29.01,28.93,0,9.95,0,19.9,0,29.85.03,8.54.01,17.09.02,25.63.02,5.1,0,10.2,0,15.31.01,4.8,0,9.6,0,14.39,0,1.76,0,3.52,0,5.28,0,2.4,0,4.81,0,7.21,0q1.04,0,2.11.02c5.4-.04,9.6-1.12,14.25-3.83,7.28-7.67,5.7-19.34,5.61-29.16,0-1.71,0-3.43-.01-5.14-.01-4.48-.04-8.97-.07-13.45-.03-4.59-.04-9.17-.06-13.76-.03-8.98-.08-17.95-.15-26.93q-1.48,0-2.99-.01c-9.36-.04-18.71-.1-28.07-.17-4.81-.04-9.62-.07-14.43-.09-4.65-.02-9.3-.05-13.95-.1-1.77-.01-3.53-.02-5.3-.02-15.82-.02-29.05-2.51-41.3-13.42-8.9-9.39-13.25-21.56-13.29-34.35-.01-.77-.02-1.54-.03-2.34-.03-2.52-.05-5.04-.06-7.56-.02-1.76-.04-3.52-.06-5.28-.05-4.61-.09-9.22-.13-13.83-.04-4.71-.09-9.43-.14-14.14-.1-9.23-.18-18.46-.26-27.69-10.59-.09-21.18-.16-31.76-.21-4.92-.02-9.83-.05-14.75-.09-4.75-.04-9.49-.07-14.24-.08-1.81,0-3.62-.02-5.43-.04-2.54-.03-5.07-.03-7.61-.03-.75-.01-1.49-.03-2.26-.04-6.04.05-9.63,2.09-13.76,6.37Z" fill="#5729d9"/>
  <path d="M274.31,48.14c.75,0,1.49-.01,2.26-.02,2.46-.02,4.91,0,7.37,0,1.72,0,3.44,0,5.16-.01,3.6,0,7.2,0,10.8.02,4.59.02,9.19,0,13.78-.01,3.55-.01,7.1,0,10.65,0,1.69,0,3.38,0,5.08,0q16.85-.07,24.21,4.55.97.57,1.97,1.15c6.91,4.18,10.89,11.25,13.03,18.85.19,2.62.29,5.13.29,7.75,0,.75.01,1.5.02,2.28.02,2.47.02,4.94.03,7.41,0,1.73.01,3.45.02,5.18.01,3.61.02,7.22.01,10.83,0,4.62.03,9.24.06,13.86.02,3.56.03,7.12.03,10.69,0,1.7.01,3.41.03,5.11.02,2.38.01,4.77,0,7.15.01.7.02,1.4.03,2.12-.06,4.99-1.44,7.77-4.52,11.63-3.82,3.63-6.88,4.31-12,4.5-5.12-.19-8.18-.87-12-4.5-3.55-4.51-4.5-7.4-4.45-13.11,0-.68,0-1.37,0-2.07,0-2.24.03-4.48.07-6.72,0-1.56.01-3.12.02-4.68.02-4.09.05-8.19.1-12.28.04-4.18.06-8.37.08-12.55.04-8.2.11-16.39.2-24.59-.86,0-1.73.02-2.62.03-8.15.08-16.3.14-24.45.18-4.19.02-8.38.05-12.57.09-4.05.04-8.09.07-12.14.08-1.54,0-3.08.02-4.62.04-2.16.03-4.33.03-6.49.03-1.23,0-2.46.02-3.73.03-5.17-.74-8.22-3.26-11.75-6.98-2.4-5.17-2.38-9.9-1.62-15.5,3.58-7.7,9.46-10.61,17.7-10.52Z" fill="#5729d9"/>
</svg>