<?xml version="1.0" encoding="UTF-8"?>
<svg id="Layer_1" xmlns="http://www.w3.org/2000/svg" width="20" height="20" version="1.1" viewBox="0 0 20 20">
  <!-- Generator: Adobe Illustrator 29.8.3, SVG Export Plug-In . SVG Version: 2.1.1 Build 3)  -->
  <path d="M10,2C5.6,2,2,5.6,2,10h2.6c.9,0,1.8.4,2.4,1,.6.6,1,1.5,1,2.3v3.4c0,.9-.4,1.7-1,2.3-.7.6-1.5.9-2.4.9h-1.2c-.9,0-1.8-.3-2.4-1C.4,18.4,0,17.6,0,16.7v-6.7C0,4.5,4.5,0,10,0s10,4.5,10,10v6.7c0,.9-.4,1.7-1,2.3-.6.6-1.5,1-2.4,1h-1.2c-.9,0-1.8-.3-2.4-1-.6-.6-1-1.5-1-2.3v-3.4c0-.9.4-1.7,1-2.3.6-.6,1.5-1,2.4-1h2.6c0-4.4-3.6-8-8-8ZM18,12h-2.6c-.4,0-.7.1-1,.4-.2.2-.4.6-.4.9v3.4c0,.3.1.7.4.9.3.2.6.4,1,.4h1.2c.4,0,.7-.1,1-.4.2-.2.4-.6.4-.9v-4.7ZM2,12h2.6c.4,0,.7.1,1,.4.2.2.4.6.4.9v3.4c0,.3-.1.7-.4.9-.3.2-.6.4-1,.4h-1.2c-.4,0-.7-.1-1-.4-.2-.2-.4-.6-.4-.9v-4.7Z" fill="#5729d9" fill-rule="evenodd"/>
</svg>